<svg xmlns="http://www.w3.org/2000/svg" width="800" height="800" viewBox="0 0 56.48 56.48"><path d="M28.75 39.462h-1.869v-1.543l1.891.038c.646-.002.947 1.544-.022 1.505zm-6.567-1.504l-1.89-.038v1.543h1.869c.969.038.668-1.508.021-1.505zm.302 2.75l-2.191.04v1.598l2.17.018c.822.022.876-1.644.021-1.656zm6.587 0l-2.191.04v1.598l2.169.018c.824.022.878-1.644.022-1.656zM56.48 11.393v33.695c0 .803-.65 1.454-1.454 1.454H1.454A1.454 1.454 0 010 45.087V11.393c0-.803.65-1.454 1.454-1.454h53.572c.804 0 1.454.651 1.454 1.454zm-28.484 11.18c1.6 1.19 4.283 1.902 2.911 4.702-.084.148-.009.221.108.2.062.014.154-.014.242-.088 1.957-2.27 5.143-5.852 2.461-8.776-1.521-1.647-4.646-2.734-5.271-4.298-.121-.303.013-.741.18-1.087.103-.247-.108-.354-.244-.333-.07-.01-.137.008-.163.053-1.317 2.739-6.02 5.396-.224 9.627zm-2.014 6.28c1.058.633 2.426 1.423 2.276 2.58-.057.146.076.166.177.048 1.507-1.728 2.639-4.198.793-5.854-.964-.935-3.245-1.438-3.493-3.038.056-.218-.191-.239-.224-.152-.677 1.845-4.104 3.967.471 6.416zm-2.66 11.231c1.58-1.177.642-3.362-.58-3.329l-2.47-.021H18.768v6.857h1.525v-.006l2.686-.042c1.699-.004 2.453-2.868.343-3.459zm6.587 0c1.58-1.177.642-3.362-.58-3.329l-2.47-.021h-1.503v6.857h1.525v-.006l2.686-.042c1.699-.004 2.453-2.868.342-3.459zm1.454-6.51h2.605v-.018l.5-.008-.511-1.434-.01.04H22.433l-.01-.04-.51 1.434.496.008v.018h2.578l.712 1.936 5.01-.017.654-1.919zm5.065 6.51c1.58-1.177.642-3.362-.58-3.329l-2.471-.021h-1.504v6.857h1.525v-.006l2.685-.042c1.699-.004 2.454-2.868.345-3.459zm-1.14-2.126l-1.891-.038v1.543h1.868c.97.038.671-1.508.023-1.505zm.302 2.75l-2.191.04v1.598l2.169.018c.823.022.876-1.644.022-1.656z"/></svg>