<svg width="600" height="600" xmlns="http://www.w3.org/2000/svg"><g stroke-width="1.051" color="#000"><path style="-inkscape-stroke:none" d="M210 0C94.48 0 0 94.51 0 210s94.48 210 210 210c115.523 0 210-94.51 210-210S325.524 0 210 0zm0 79.976c72.242 0 129.975 57.724 129.975 130.024 0 72.3-57.733 130.025-129.974 130.025-72.242 0-129.977-57.725-129.977-130.025 0-72.3 57.735-130.024 129.977-130.024z" paint-order="stroke fill markers"/><path style="-inkscape-stroke:none" d="M330.025 290.046a40.012 39.988 0 00-28.297 11.704 40.012 39.988 0 00-.017 56.551L531.686 588.28a40.012 39.988 0 0056.585.017 40.012 39.988 0 00.019-56.552L358.313 301.768a40.012 39.988 0 00-28.288-11.722z"/><path style="-inkscape-stroke:none" d="M299.874 224.992a10.003 9.997 0 01-10.004-9.996 84.98 84.98 0 00-33.314-67.484 84.968 84.968 0 00-73.823-14.585 10.003 9.997 0 01-12.264-7.045 10.003 9.997 0 017.05-12.257 105.033 105.033 0 0191.207 18.018 105.016 105.016 0 0141.15 83.353 10.003 9.997 0 01-10.002 9.996z" paint-order="stroke fill markers"/></g></svg>